/* XPM */
static char *a0ad725024834126e63286f2f666d421WvLVNPV7cso9UAE2[] = {
/* columns rows colors chars-per-pixel */
"16 32 64 1 ",
"  c None",
". c #111111",
"X c #181818",
"o c gray18",
"O c #353535",
"+ c #46361D",
"@ c #4E3A1E",
"# c #533D21",
"$ c #563D22",
"% c #5F4827",
"& c #644426",
"* c #6B4727",
"= c #624B29",
"- c #6E4829",
"; c #72542E",
": c #715831",
"> c #755C33",
", c #7A5832",
"< c #7C5A34",
"1 c #785D34",
"2 c #434343",
"3 c DimGray",
"4 c #6F6F6F",
"5 c #84693B",
"6 c #896C3E",
"7 c #8A6E3E",
"8 c #8B6E40",
"9 c #8F7441",
"0 c #967845",
"q c #997D47",
"w c #9B844A",
"e c #A0884F",
"r c #A28A53",
"t c #A68F52",
"y c #AB9457",
"u c #AC975B",
"i c black",
"p c black",
"a c black",
"s c black",
"d c black",
"f c black",
"g c black",
"h c black",
"j c black",
"k c black",
"l c black",
"z c black",
"x c black",
"c c black",
"v c black",
"b c black",
"n c black",
"m c black",
"M c black",
"N c black",
"B c black",
"V c black",
"C c black",
"Z c black",
"A c black",
"S c black",
"D c black",
"F c black",
/* pixels */
"uttttuuytuuuuuu5",
"u86>66555556568&",
"u8;;;;,6<<<,=88&",
"0:%    9=    7>#",
"O;;    w<    e6-",
"45=    w,    w5&",
"u888errw55w9rr8-",
"q>%%%%%>===%%:>#",
"u8<    r<    r8&",
"t5;    e;    w5&",
"u6,    w;    e6&",
"q:>97779>99977:#",
"u88rrwrw5wwwe98-",
"y5=<<<<5<,,;;55*",
"u8;5588w<852oX--",
"O>=1::17=>>X3.@#",
"45;5588e;8888r8&",
"u869eeww5wwewe8&",
"u85555668886>88&",
"0:%====>==%%%:>#",
"u5;5588w<55>6e6-",
"t5=6668w,6665w5&",
"u8<6888w;5>88r8-",
"q>:77779>97777>#",
"u8888>588666888&",
"t5;;;<,6;;;=<55&",
"O6,6885w;5666e6&",
"4:=>:::9=>>>:7:#",
"u8<8858w;555698-",
"y5>rrrrw8eewww5*",
"u85558858856888-",
">##$@@$@###@+@@#"
};
