/* XPM */
static char *_de32be322b54a83d9d0d8900fd15421ZTqHvnaIW4LtTCWT[] = {
/* columns rows colors chars-per-pixel */
"58 58 155 2 ",
"   c None",
".  c black",
"X  c #030201",
"o  c #050502",
"O  c #0F0D06",
"+  c #100E07",
"@  c #110F08",
"#  c #18150B",
"$  c #1D1909",
"%  c #1E1A09",
"&  c #1F1B0A",
"*  c #221C09",
"=  c #221E0B",
"-  c #231E0B",
";  c #241F0C",
":  c #2D270D",
">  c #30290E",
",  c #403714",
"<  c #413814",
"1  c #413815",
"2  c #433A16",
"3  c #453C16",
"4  c #463C17",
"5  c #473E17",
"6  c #40391C",
"7  c #483F19",
"8  c #4C400F",
"9  c #574911",
"0  c #554A1C",
"q  c #5E521E",
"w  c #5F521F",
"e  c #605113",
"r  c #615214",
"t  c #635316",
"y  c #4E4623",
"u  c #524820",
"i  c #685A22",
"p  c #695B22",
"a  c #6A5C23",
"s  c #6B5D23",
"d  c #615528",
"f  c #6E6129",
"g  c #6F612C",
"h  c #7B6A26",
"j  c #756935",
"k  c #816D1A",
"l  c #8C7A2E",
"z  c #8D7A2E",
"x  c #8D7B2E",
"c  c #8E7B2F",
"v  c #817135",
"b  c #A28821",
"n  c #A18B30",
"m  c #A08B35",
"M  c #A18D38",
"N  c #A69036",
"B  c #AD9637",
"V  c #A9943E",
"C  c #AA953E",
"Z  c #AF9839",
"A  c #AF983C",
"S  c #B29A3A",
"D  c #B79F3C",
"F  c #B49E3F",
"G  c #C2A327",
"H  c #C3A429",
"J  c #C5A528",
"K  c #C5A529",
"L  c #C7A729",
"P  c #C5A72C",
"I  c #CAAA2A",
"U  c #CCAC2A",
"Y  c #C9AA2E",
"T  c #CAAB2E",
"R  c #D1B02C",
"E  c #C2A635",
"W  c #C2A636",
"Q  c #C8AA31",
"!  c #CEAF32",
"~  c #CBAD34",
"^  c #CCAE37",
"/  c #C2A73B",
"(  c #C8AD3F",
")  c #CFB23C",
"_  c #D2B230",
"`  c #D1B337",
"'  c #D3B539",
"]  c #D2B43C",
"[  c #D3B63F",
"{  c #D4B63D",
"}  c #9C8B46",
"|  c #A18E42",
" . c #AA9746",
".. c #B7A144",
"X. c #B9A241",
"o. c #B9A246",
"O. c #BAA449",
"+. c #BDA84E",
"@. c #B7A452",
"#. c #BCA854",
"$. c #C3AA40",
"%. c #C4AB45",
"&. c #C9AF42",
"*. c #C7AE4B",
"=. c #C1AA4F",
"-. c #C4AD4E",
";. c #C8AF4C",
":. c #CAB047",
">. c #CBB24B",
",. c #CEB449",
"<. c #CEB54E",
"1. c #D2B540",
"2. c #D2B541",
"3. c #D3B747",
"4. c #D4B842",
"5. c #D4B946",
"6. c #D5B946",
"7. c #D0B548",
"8. c #D1B648",
"9. c #D2B748",
"0. c #D6BA48",
"q. c #D7BB49",
"w. c #D9BD4C",
"e. c #DABE4E",
"r. c #C1AD56",
"t. c #C3AE58",
"y. c #C4AF58",
"u. c #C9B359",
"i. c #C8B35A",
"p. c #CFB95D",
"a. c #D5BC56",
"s. c #D9BF53",
"d. c #DBC050",
"f. c #DCC151",
"g. c #DCC152",
"h. c #DCC255",
"j. c #DEC354",
"k. c #DEC355",
"l. c #DFC456",
"z. c #DFC557",
"x. c #E0C558",
"c. c #E1C659",
"v. c #E1C65A",
"b. c #E1C75A",
"n. c #E2C85C",
"m. c #E3C95D",
"M. c #E4CA5F",
"N. c #E5CB60",
"B. c #E6CC61",
"V. c #E6CD63",
"C. c #E7CD63",
"Z. c #E7CE65",
"A. c #E9CF67",
"S. c #E9D067",
"D. c #EAD169",
/* pixels */
"                                                                                                                    ",
"                                                                                                                    ",
"                                                                                                                    ",
"                                                                                                                    ",
"                                                                                                                    ",
"                                                                                                                    ",
"                                                                                                                    ",
"                                                                                                                    ",
"                                                                                                                    ",
"                                                                                                                    ",
"                                                                                                                    ",
"                                                                                                                    ",
"                                                                                                                    ",
"                                                                                                                    ",
"                                                                                                                    ",
"                                                                                                                    ",
"                          . . . . . . .                                                                             ",
"                          . . . . . . .                                                                             ",
"                  . . . 2 S S S S S S Z . . .                                                                       ",
"                  . . . 3 k.l.g.q.6.6.6.. . . .                                                                     ",
"              . . 6.6.6.z.D.D.D.D.D.D.D.6.6.6.i .                                                                   ",
"              2 7 l.x.x.C.D.D.D.N.m.m.m.f.e.6.c 5 *                                                                 ",
"          . . S f.D.D.D.D.D.D.D.f.6.6.6.D.m.6.6.6.3 .                                                               ",
"          . . S m.D.D.D.D.x. .j f s $.6.x.s.>.7.6.5 .                                                               ",
"          . . S k.D.D.D.m.6.a . o o S q.5.,.+.>.6.5 .                                                               ",
"        . 0 x <.N.D.A.k.C 3 :       > 5 6.0.,.>.;.M z % . . . . . . . . . . . . . . . . . . . . . . . . . . . .     ",
"        . a 6.B.D.D.C.6.z . .       . . 6.6.5.>.r.7.6.; . . . . . . . . . . . . . . . . . . . . . . . . . o . .     ",
"        . a 6.C.D.D.u.; %               * w 0.] T { 6.D S t.t.y.+.S O.t...S S S S ..t.t.t...S S S t.t.t.r.u.y.#.+ . ",
"        . s q.C.D.D.t.. .               . 8 0.] R { 6.6.6.D.D.D.m.6.x.D.w.4.6.6.6.f.D.D.D.f.6.4.6.D.D.D.D.D.D.D.+ . ",
"        . s 6.C.D.6.S . .               . 3 0.^ G ) 6.6.6.6.3.r.=.=.,.6.-.r.6.6.6.6.6.>.=.=.r.3.6.6.6.6.x.D.D.D.# . ",
"        . f 6.C.D.6.D ; *               * w 4.~ G ) 6.D S S Z | | | X.2.*.-.6.6.6.&.S C | | | :.7.6.3.6.v.D.p.@.@ . ",
"        . a 6.C.D.6.6.6.c . .       . . 6.{ R I G ) 6.; . . . . . . e G 2.6.6.6.6.c . . . . . | =.6.0.q.z.D.u .     ",
"        . 0 c a.m.f.e.6.N 3 >       2 3 { ` U Y Q n z % . . . . . . 8 k W ] ,.%.z i . . . . . g v ,.7.6.o.} 6 .     ",
"          . . S q.D.B.6.6.6.s . . . S 6.R U G ^ 6.5 .               . . b G =.| . .           . . =.>.6.a .         ",
"          . . S 6.z.h.,.,.6.m s s s W ' I L G ^ 6.7 .                 . 9 r d u .             . . / ( 6.a .         ",
"          . . S 6.6.7.r.>.6.6.6.6.6._ U G G G ^ 6.3 .                   . . . .               . . G Q 6.s .         ",
"              * : 6.6.7.2._ _ _ Y P L L 2.2.2.h ;                                             . . G H P t .         ",
"              . . 6.6.6.] R R R L G G G 6.6.6.i .                                             . . G G G r .         ",
"                  . . . 7 6.6.6.6.6.6.6.. . . .                                                   . . . .           ",
"                  . . . 2 S S S S S S B . . .                                                     . . .             ",
"                          . . . . . . .                                                                             ",
"                          . . . . . . .                                                                             ",
"                                                                                                                    ",
"                                                                                                                    ",
"                                                                                                                    ",
"                                                                                                                    ",
"                                                                                                                    ",
"                                                                                                                    ",
"                                                                                                                    ",
"                                                                                                                    ",
"                                                                                                                    ",
"                                                                                                                    ",
"                                                                                                                    ",
"                                                                                                                    ",
"                                                                                                                    ",
"                                                                                                                    ",
"                                                                                                                    ",
"                                                                                                                    "
};
